<?xml version="1.0" encoding="UTF-8"?>
<svg width="26px" height="25px" viewBox="0 0 26 25" version="1.1" xmlns="http://www.w3.org/2000/svg" xmlns:xlink="http://www.w3.org/1999/xlink">
    <!-- Generator: Sketch 52.2 (67145) - http://www.bohemiancoding.com/sketch -->
    <title>pdf</title>
    <desc>Created with Sketch.</desc>
    <g id="Page-1" stroke="none" stroke-width="1" fill="none" fill-rule="evenodd">
        <g id="Desktop" transform="translate(-1036.000000, -65.000000)" fill="#000000">
            <g id="top-editor" transform="translate(412.000000, 38.000000)">
                <g id="add-file" transform="translate(624.000000, 27.000000)">
                    <g>
                        <path d="M24.3210911,23.912982 L16.3134137,23.912982 C16.0160228,23.912982 15.7751934,24.1561946 15.7751934,24.4565283 C15.7751934,24.756663 16.0160228,24.9998756 16.3134137,24.9998756 L24.3210911,24.9998756 C25.2361247,25.0110212 25.9873864,24.2720291 25.9999994,23.3477416 L25.9999994,7.07041045 C26.0001965,6.93984788 25.9538831,6.8134649 25.8693366,6.71454784 L20.2831578,0.187812548 C20.1810714,0.0683955633 20.0322774,-0.000269202998 19.8757974,0.000128853618 L7.76731889,0.000128853618 C6.85248231,-0.0112157599 6.10102353,0.72797535 6.08860759,1.6520638 L6.08860759,14.6738889 C6.08860759,14.9738246 6.32943706,15.2172362 6.62643372,15.2172362 C6.92382461,15.2172362 7.16485114,14.9738246 7.16485114,14.6738889 L7.16485114,1.6520638 C7.17766121,1.32824473 7.44686987,1.07587688 7.76731889,1.08702247 L18.9643112,1.08702247 L19.004318,6.80251838 C19.0112158,7.54867549 19.6109245,8.14994 20.3495732,8.15212932 L24.9237559,8.15212932 L24.9237559,23.3477416 C24.9109458,23.6713616 24.64154,23.9239286 24.3210911,23.912982 Z M20.0805616,6.79336305 L20.0454817,1.56847191 L24.7459915,7.06503668 L20.3495732,7.06503668 C20.2009763,7.06503668 20.0805616,6.94343042 20.0805616,6.79336305 Z" id="Shape" fill-rule="nonzero"></path>
                        <path d="M5.17136572,16.7351166 C4.88907141,16.360737 4.53864306,16.1176105 4.120167,16.0058251 C3.84780352,15.9313015 3.26326691,15.8940397 2.36647084,15.8940397 L0,15.8940397 L0,23.3443709 L1.47468335,23.3443709 L1.47468335,20.5339689 L2.43624563,20.5339689 C3.10385569,20.5339689 3.61369527,20.4983808 3.96576437,20.4272047 C4.2248292,20.3695942 4.47974898,20.2519069 4.73052374,20.0739665 C4.98129849,19.8961141 5.18803222,19.6513139 5.35081129,19.3396538 C5.51359035,19.0279938 5.59493671,18.6433958 5.59493671,18.186036 C5.59485035,17.5931067 5.45366002,17.1094963 5.17136572,16.7351166 Z M3.90842469,18.7857481 C3.79719952,18.9517965 3.64357408,19.0737121 3.44754836,19.1516712 C3.25152264,19.2296302 2.86301176,19.2685657 2.28175664,19.2685657 L1.47468335,19.2685657 L1.47468335,17.1544218 L2.18711162,17.1544218 C2.71853994,17.1544218 3.07224978,17.171335 3.24824115,17.2052494 C3.48735799,17.2492941 3.68502445,17.3594057 3.84106783,17.5355844 C3.99719757,17.711763 4.07526244,17.9354218 4.07526244,18.2063846 C4.07534879,18.4266079 4.01964985,18.6196997 3.90842469,18.7857481 Z" id="Shape" fill-rule="nonzero"></path>
                        <path d="M12.7622228,17.9294318 C12.6037047,17.453397 12.3724537,17.0510931 12.0686416,16.7224318 C11.7648295,16.3937705 11.3997912,16.1650906 10.9737845,16.036304 C10.6567482,15.9414318 10.1959637,15.8940397 9.59160255,15.8940397 L6.91139241,15.8940397 L6.91139241,23.3443709 L9.67086162,23.3443709 C10.2125368,23.3443709 10.6451556,23.2918696 10.968804,23.1867791 C11.4015087,23.0445148 11.7449932,22.8463138 11.9992577,22.5921761 C12.3361302,22.2567319 12.5953752,21.8180471 12.7770785,21.2759453 C12.9257215,20.8320632 13,20.3035272 13,19.6903374 C13,18.9924057 12.9207409,18.4054665 12.7622228,17.9294318 Z M11.3353879,20.9888622 C11.2362926,21.3226327 11.1083446,21.5623237 10.951458,21.7079354 C10.7945714,21.8536352 10.5972395,21.9569639 10.3594623,22.0179218 C10.1778449,22.0654019 9.8821905,22.0890979 9.47267102,22.0890979 L8.37781393,22.0890979 L8.37781393,17.1544218 L9.03670322,17.1544218 C9.63445225,17.1544218 10.035814,17.1781179 10.2405308,17.225598 C10.5146315,17.2865558 10.7409019,17.4034504 10.9192563,17.5762816 C11.0976107,17.7491129 11.2362926,17.9895968 11.3353879,18.2979094 C11.4344832,18.6062221 11.4840308,19.0483424 11.4840308,19.6243585 C11.4840308,20.2002866 11.4344832,20.6550918 11.3353879,20.9888622 Z" id="Shape" fill-rule="nonzero"></path>
                        <polygon id="Path" points="19.0886076 17.1544218 19.0886076 15.8940397 14.1518987 15.8940397 14.1518987 23.3443709 15.6058953 23.3443709 15.6058953 20.1782642 18.6121442 20.1782642 18.6121442 18.9178821 15.6058953 18.9178821 15.6058953 17.1544218"></polygon>
                    </g>
                </g>
            </g>
        </g>
    </g>
</svg>