<?xml version="1.0" encoding="UTF-8"?>
<svg width="26px" height="21px" viewBox="0 0 26 21" version="1.1" xmlns="http://www.w3.org/2000/svg" xmlns:xlink="http://www.w3.org/1999/xlink">
    <!-- Generator: Sketch 52.2 (67145) - http://www.bohemiancoding.com/sketch -->
    <title>share</title>
    <desc>Created with Sketch.</desc>
    <g id="Page-1" stroke="none" stroke-width="1" fill="none" fill-rule="evenodd">
        <g id="Desktop" transform="translate(-1084.000000, -67.000000)" fill-rule="nonzero" stroke="#000000">
            <g id="top-editor" transform="translate(412.000000, 38.000000)">
                <g id="share" transform="translate(672.000000, 29.000000)">
                    <path d="M15.0810149,0.623654003 L15.081103,0.623729089 C14.9399387,0.503559086 14.708627,0.464551632 14.510571,0.535024587 C14.3375877,0.596576108 14.2417206,0.719494193 14.2417206,0.834915823 L14.2417206,5.773045 L13.7587344,5.78948936 C11.4826456,5.86698394 9.54878491,6.26627573 7.94274838,6.88666099 C6.90981666,7.28566537 6.17774839,7.70588868 5.71968166,8.05843511 C3.1606441,9.85603559 1.41882938,12.3531677 0.787069796,15.1212615 C0.472077557,16.4550087 0.415844959,17.8228439 0.620487203,19.1697112 C0.622763744,19.1838933 0.622763744,19.1838933 0.623556272,19.1887673 L0.830845674,20.208658 C0.85695094,20.337232 0.998151851,20.4595656 1.20179835,20.4920727 C1.41948057,20.5267871 1.63255715,20.4446024 1.72862233,20.3075079 L2.35000344,19.4209496 C4.32060013,16.6163588 6.79009153,14.7470315 9.68273649,13.8794491 C10.9912384,13.4833314 12.376959,13.309505 13.7625553,13.3672922 L14.2417206,13.3872761 L14.2417206,18.4808699 C14.2417206,18.5966777 14.337949,18.7198171 14.5114813,18.7810605 C14.7104096,18.8513711 14.9419157,18.811526 15.0825573,18.6904853 L25.3900249,9.82314752 C25.5371586,9.69657706 25.5366716,9.52849515 25.3884733,9.40227811 L15.0810149,0.623654003 Z" id="Path"></path>
                </g>
            </g>
        </g>
    </g>
</svg>