<svg width="24" height="24" xmlns="http://www.w3.org/2000/svg"><g fill="none" fill-rule="evenodd"><path d="M12 24c6.618 0 12-5.382 12-12S18.618 0 12 0 0 5.382 0 12s5.382 12 12 12zM12 .97C18.083.97 23.03 5.918 23.03 12c0 6.083-4.947 11.03-11.03 11.03C5.917 23.03.97 18.082.97 12 .97 5.917 5.918.97 12 .97z" fill="#2C2F33" fill-rule="nonzero"/><g fill="#3C92CA"><path d="M8.147 8.177a.47.47 0 0 0-.137.33c0 .118.047.24.137.33l3.517 3.496a.467.467 0 0 0 .663 0l3.517-3.497a.468.468 0 0 0-.663-.659l-3.185 3.168L8.81 8.177a.476.476 0 0 0-.663 0z"/><path d="M8.146 15.83a.47.47 0 0 1-.137-.33.47.47 0 0 1 .137-.329l3.517-3.496a.467.467 0 0 1 .663 0l3.517 3.496a.468.468 0 0 1-.663.659l-3.185-3.167-3.186 3.167a.476.476 0 0 1-.663 0z"/></g></g></svg>