<svg width="193" height="112" xmlns="http://www.w3.org/2000/svg" xmlns:xlink="http://www.w3.org/1999/xlink"><defs><path d="M112.94 0c-1.758 0-6.768 8.374-13.52 8.374H8.441c-1.938 0-4.285.854-6.087 2.791C1.073 12.543.288 14.243 0 16.263v79.301c.082 2.149.867 3.925 2.355 5.33C3.843 102.298 5.582 103 7.572 103H173.87c2.706-.156 4.836-.858 6.391-2.106 1.555-1.249 2.468-3.025 2.738-5.33v-79.3c0-2.14-.55-3.84-1.649-5.099-1.649-1.888-4.207-2.791-6.552-2.791h-48.923C119.31 8.374 114.576 0 112.94 0z" id="b"/><filter x="-4.4%" y="-4.9%" width="108.7%" height="115.5%" filterUnits="objectBoundingBox" id="a"><feOffset dy="3" in="SourceAlpha" result="shadowOffsetOuter1"/><feGaussianBlur stdDeviation="2.5" in="shadowOffsetOuter1" result="shadowBlurOuter1"/><feComposite in="shadowBlurOuter1" in2="SourceAlpha" operator="out" result="shadowBlurOuter1"/><feColorMatrix values="0 0 0 0 0.711203231 0 0 0 0 0.711203231 0 0 0 0 0.711203231 0 0 0 1 0" in="shadowBlurOuter1"/></filter></defs><g transform="matrix(-1 0 0 1 188 1)" fill="none" fill-rule="evenodd"><use fill="#000" filter="url(#a)" xlink:href="#b"/><use stroke="#E0E0E0" fill="#FFF" xlink:href="#b"/></g></svg>