<svg width="21" height="20" xmlns="http://www.w3.org/2000/svg"><g transform="rotate(13 24.017 22.663)" fill="none" fill-rule="evenodd"><ellipse fill="#FFF" transform="rotate(-57.459 10.368 9.324)" cx="10.368" cy="9.324" rx="4.648" ry="4.645"/><path d="M14.263 11.955c.622-.955.954-2.698.705-3.82-.166-.746-1.12-1.577-1.617-2.158.249.997.415 3.072-.912 4.981-1.12 1.62-2.778 2.325-3.69 2.533 1.783.54 4.478.124 5.514-1.536z" fill="#3C92CA"/><path d="M13.6 4.234c-1.368-.872-2.985-1.162-4.52-.789-1.575.332-2.902 1.287-3.773 2.657-1.783 2.781-.953 6.517 1.825 8.302 2.778 1.785 6.51.954 8.292-1.827.871-1.37 1.161-2.988.788-4.524A6.079 6.079 0 0 0 13.6 4.234zm.746 7.638a4.791 4.791 0 0 1-4.022 2.2c-.87 0-1.741-.25-2.529-.747-2.197-1.412-2.86-4.359-1.451-6.559a4.54 4.54 0 0 1 2.985-2.075c1.244-.291 2.488-.042 3.566.622a4.545 4.545 0 0 1 2.073 2.989c.29 1.245.083 2.532-.622 3.57z" fill="#D0CFCE" fill-rule="nonzero"/><path d="M15.827 12.808a6.472 6.472 0 0 1-8.938 1.97A6.472 6.472 0 0 1 4.91 5.84a6.472 6.472 0 0 1 8.939-1.97 6.472 6.472 0 0 1 1.98 8.937zm-.7-.447a5.642 5.642 0 0 0-1.725-7.79 5.642 5.642 0 0 0-7.793 1.717 5.642 5.642 0 0 0 1.726 7.79 5.642 5.642 0 0 0 7.792-1.717z" fill="#000" fill-rule="nonzero"/><path d="M14.638 12.048a5.061 5.061 0 0 1-6.99 1.54A5.061 5.061 0 0 1 6.098 6.6a5.061 5.061 0 0 1 6.99-1.54 5.061 5.061 0 0 1 1.549 6.988zm-.7-.446a4.232 4.232 0 0 0-1.295-5.843A4.232 4.232 0 0 0 6.8 7.047a4.232 4.232 0 0 0 1.295 5.843 4.232 4.232 0 0 0 5.844-1.288z" fill="#000" fill-rule="nonzero"/><path d="M5.141 15.483l-2.86 4.275-1.535 2.408c-.207.332.166 1.328.456 1.536.166.083 1.037 0 1.037 0l4.81-7.14-1.908-1.079z" fill="#3F3F3F"/><path d="M1.082 22.41c-.183.252-.09.653.213.855.351.217.751.14.927-.16l4.129-6.458-1.125-.716-4.144 6.48zm4.24-7.402l1.825 1.163c.194.123.25.38.127.574l-4.345 6.792c-.412.708-1.337.886-2.08.427-.692-.461-.91-1.391-.452-2.022l4.354-6.807a.414.414 0 0 1 .572-.127z" fill="#000" fill-rule="nonzero"/></g></svg>